<svg id="Capa_1" data-name="Capa 1" xmlns="http://www.w3.org/2000/svg" xmlns:xlink="http://www.w3.org/1999/xlink" viewBox="0 0 734.9 734.9"><defs><style>.cls-1{fill:url(#Degradado_sin_nombre_8);}.cls-2{fill:#fff;}</style><linearGradient id="Degradado_sin_nombre_8" y1="367.45" x2="734.9" y2="367.45" gradientUnits="userSpaceOnUse"><stop offset="0" stop-color="#8100e6"/><stop offset="0.99" stop-color="#93278f"/></linearGradient></defs><circle class="cls-1" cx="367.45" cy="367.45" r="367.45"/><path class="cls-2" d="M663.86,614.24c-13.31,33.06-27.9,57.51-43.09,76.49a88,88,0,0,0,7.48-13.62c11.38-26.21,8.21-56.07,7.76-84.64-1.77-111.61-9.43-174.37,69.67-253.13-96.64,66.39-104.6,124.33-111,241.41-1.31,24.11,2,46.56-18.76,75a114.23,114.23,0,0,1-14.25,16.28,415.72,415.72,0,0,0,2.45-42.38c.92-52.66-.75-105.6-5-157.24-1.28-15.61-2.79-31.11-4.7-46.32-2.07-16.53-4.62-32.67-6.78-49.14-7.39-56.19-8.37-124.08-8.37-124.08S537.75,320.8,530.37,377c-2.17,16.47-4.71,32.61-6.79,49.14-1.91,15.21-3.42,30.71-4.7,46.32-4.22,51.64-5.89,104.58-5,157.24.24,13.42.71,27,2.13,39.88a120.41,120.41,0,0,1-11.64-13.78c-20.81-28.48-17.45-50.93-18.76-75-6.39-117.08-14.35-175-111-241.41,79.1,78.76,71.44,141.52,69.67,253.13-.45,28.57-3.62,58.43,7.76,84.64a88,88,0,0,0,7.48,13.62c-15.19-19-29.78-43.43-43.09-76.49-39.93-99.13-191.89-59.72-176.66-58.91a20,20,0,0,0,3.75-.22c34.8-4.25,138.66,11.86,153.23,116.44,6.49,46.86,32.7,73.55,59.66,88.76a1.17,1.17,0,0,0-.05.11,201.68,201.68,0,0,0,59.31,16.86,197.89,197.89,0,0,0,24.45,1.57,200.26,200.26,0,0,0,82.77-18l1-.43,0-.1c27-15.21,53.17-41.9,59.66-88.76C698.11,567,802,550.86,836.77,555.11a20,20,0,0,0,3.75.22C855.75,554.52,703.78,515.11,663.86,614.24Z" transform="translate(-172.55 -172.55)"/></svg>